<svg width="20" height="20" viewBox="0 0 20 20" fill="none" xmlns="http://www.w3.org/2000/svg">
<path d="M7.425 17.225C7.26667 17.225 7.10834 17.1667 6.98334 17.0417C6.74167 16.8 6.74167 16.4 6.98334 16.1583L12.4167 10.725C12.8167 10.325 12.8167 9.67502 12.4167 9.27502L6.98334 3.84168C6.74167 3.60002 6.74167 3.20002 6.98334 2.95835C7.225 2.71668 7.625 2.71668 7.86667 2.95835L13.3 8.39168C13.725 8.81668 13.9667 9.39168 13.9667 10C13.9667 10.6084 13.7333 11.1834 13.3 11.6084L7.86667 17.0417C7.74167 17.1584 7.58334 17.225 7.425 17.225Z" fill="#FBF4F4"/>
</svg>
