<?xml version="1.0" encoding="utf-8"?>
<!-- Generator: Adobe Illustrator 27.2.0, SVG Export Plug-In . SVG Version: 6.00 Build 0)  -->
<svg version="1.1" id="Layer_1" xmlns="http://www.w3.org/2000/svg" xmlns:xlink="http://www.w3.org/1999/xlink" x="0px" y="0px"
	 viewBox="0 0 100 100" style="enable-background:new 0 0 100 100;" xml:space="preserve">
<style type="text/css">
	.st0{fill:#FFFFFF;}
</style>
<path class="st0" d="M81.2,41.3C81.2,41.3,81.2,41.3,81.2,41.3c0-0.1,0-0.1,0-0.1c0,0,0-0.1,0-0.1L73.8,17c-0.2-0.5-0.7-0.9-1.2-0.9
	H27.4c-0.6,0-1.1,0.4-1.2,0.9l-7.4,24.1c0,0,0,0.1,0,0.1c0,0,0,0,0,0.1s0,0,0,0.1c0,0,0,0.1,0,0.1v41.2c0,0.7,0.6,1.3,1.3,1.3H80
	c0.7,0,1.3-0.6,1.3-1.3V41.5C81.2,41.5,81.2,41.4,81.2,41.3z M78.2,40.2H57.6l-1.7-21.5h15.7L78.2,40.2z M43.6,55.2V42.7h11.5v12.5
	H43.6z M45.4,18.7h7.9L55,40.2H43.7L45.4,18.7z M28.4,18.7h14.5l-1.7,21.5H21.8C21.8,40.2,28.4,18.7,28.4,18.7z M21.3,81.3V42.7H41
	v13.8c0,0.7,0.6,1.3,1.3,1.3h14c0.7,0,1.3-0.6,1.3-1.3V42.7h21v38.6C78.6,81.3,21.3,81.3,21.3,81.3z"/>
</svg>
