<?xml version="1.0" encoding="utf-8"?>
<!-- Generator: Adobe Illustrator 27.2.0, SVG Export Plug-In . SVG Version: 6.00 Build 0)  -->
<svg version="1.1" id="Layer_1" xmlns="http://www.w3.org/2000/svg" xmlns:xlink="http://www.w3.org/1999/xlink" x="0px" y="0px"
	 viewBox="0 0 100 100" style="enable-background:new 0 0 100 100;" xml:space="preserve">
<style type="text/css">
	.st0{fill:#FFFFFF;}
</style>
<path class="st0" d="M39.4,52.9H22.2c-0.7,0-1.3,0.6-1.3,1.3s0.6,1.3,1.3,1.3h17.2c0.7,0,1.3-0.6,1.3-1.3
	C40.7,53.5,40.1,52.9,39.4,52.9z"/>
<path class="st0" d="M88.9,49.6c-3.8,0-7.5,0-10.7-1.3V20.9c0-2.1-1.8-3.9-3.9-3.9H13.7c-2.2,0-3.9,1.8-3.9,3.9v40.1
	c0,2.2,1.8,3.9,3.9,3.9h41.8c1.1,4.3,3.3,8.1,6.6,11.4c2.7,2.7,6.2,5,9.8,6.5c0.2,0.1,0.3,0.1,0.5,0.1s0.3,0,0.5-0.1
	c2.5-1,7.3-3.4,11.3-8c3.9-4.6,6-10,6-16.1v-7.9C90.2,50.1,89.6,49.6,88.9,49.6L88.9,49.6z M13.7,19.6h60.6c0.7,0,1.3,0.6,1.3,1.3
	v10.1H12.4V20.9C12.4,20.2,13,19.6,13.7,19.6z M12.4,61.1V33.7h63.2v13.2c-0.1,0-0.1-0.1-0.2-0.1l0,0l-0.1,0
	c-0.1-0.1-0.2-0.2-0.3-0.3l0,0L75,46.3l0,0c-0.1-0.1-0.2-0.2-0.3-0.3l0,0L74.6,46l0,0c-0.1-0.1-0.2-0.2-0.3-0.3l-0.1-0.1l0,0
	c-0.1-0.1-0.2-0.2-0.3-0.3l0,0l-0.1-0.1l0,0c-0.1-0.1-0.2-0.3-0.3-0.4h0c0,0,0,0-0.1-0.1l-0.1,0h0c0,0,0,0,0,0c0,0,0,0-0.1,0
	c0,0,0,0,0,0c0,0,0,0-0.1,0c0,0,0,0-0.1,0c0,0,0,0-0.1,0s0,0-0.1,0s0,0-0.1,0c0,0,0,0-0.1,0c0,0,0,0-0.1,0c0,0,0,0-0.1,0
	c0,0,0,0-0.1,0s0,0-0.1,0c0,0,0,0-0.1,0h-0.2c0,0-0.1,0-0.1,0c0,0,0,0-0.1,0s-0.1,0-0.1,0s0,0-0.1,0c0,0-0.1,0-0.1,0s0,0-0.1,0
	c0,0,0,0-0.1,0s0,0-0.1,0s0,0-0.1,0c0,0,0,0-0.1,0c0,0,0,0-0.1,0c0,0,0,0-0.1,0c0,0,0,0,0,0h0c0,0,0,0-0.1,0l-0.1,0h0
	c-0.3,0.3-0.5,0.6-0.8,0.8l0,0l0,0c-0.5,0.5-1,0.9-1.5,1.2l0,0C69.1,46.9,69,47,69,47.1l0,0c-0.5,0.3-1,0.6-1.6,0.9l0,0
	c-0.1,0.1-0.3,0.1-0.4,0.2l0,0c-0.3,0.1-0.6,0.2-0.9,0.3l0,0c-0.2,0-0.3,0.1-0.5,0.2l0,0c-0.1,0-0.2,0.1-0.4,0.1c0,0-0.1,0-0.1,0
	c-0.2,0-0.3,0.1-0.5,0.1l0,0c-0.6,0.2-1.3,0.3-2,0.4c-0.2,0-0.4,0-0.6,0.1l0,0c-1.8,0.2-3.8,0.2-6.1,0.2c-0.7,0-1.3,0.6-1.3,1.3v7.9
	l0,0c0,0.2,0,0.4,0,0.7l0,0v0.2l0,0c0,0.2,0,0.3,0,0.5l0,0c0,0,0,0.1,0,0.1v0.1l0,0v0.1c0,0.1,0,0.3,0,0.4l0,0c0,0,0,0.1,0,0.1v0
	l0,0c0,0.2,0,0.3,0,0.5l0,0l0,0.1l0,0c0,0.1,0,0.2,0,0.3c0,0.1,0,0.1,0,0.2l0,0v0.1h0c0,0.1,0,0.2,0,0.3H13.7
	C13,62.4,12.4,61.8,12.4,61.1z M87.6,58.7c0,13.6-11,19.7-15.1,21.5C69,78.7,60,73.9,57.8,63.4l0,0c0-0.2-0.1-0.4-0.1-0.5v0h0
	c0-0.2-0.1-0.3-0.1-0.5l0,0v-0.1h0c0-0.1,0-0.3-0.1-0.4c0,0,0,0,0-0.1l0,0l0-0.1l0,0c0-0.1,0-0.1,0-0.2c0-0.1,0-0.2,0-0.3l0,0v-0.1
	h0c0-0.1,0-0.3,0-0.4l0,0v-0.2h0c0-0.1,0-0.2,0-0.4v0l0,0v-0.2h0c0-0.1,0-0.3,0-0.4l0,0v-0.2h0c0-0.2,0-0.4,0-0.6l0,0v-6.6
	c1.9,0,3.5,0,5.1-0.2l0,0c0.2,0,0.4,0,0.6-0.1c0.8-0.1,1.5-0.2,2.2-0.4l0,0c0.2,0,0.4-0.1,0.6-0.1s0.4-0.1,0.5-0.2l0,0
	c0.2-0.1,0.4-0.1,0.5-0.2l0,0c0.4-0.1,0.7-0.3,1.1-0.4l0,0c0.2-0.1,0.3-0.2,0.5-0.2l0,0c0.6-0.3,1.3-0.7,1.9-1.1l0,0
	c0.1-0.1,0.2-0.1,0.3-0.2l0,0c0.6-0.4,1.2-0.9,1.8-1.5h0c0.1,0.1,0.2,0.2,0.4,0.3l0,0l0.1,0.1l0,0c0.1,0.1,0.3,0.2,0.4,0.3l0,0
	c0,0,0.1,0.1,0.1,0.1l0,0c0.2,0.1,0.3,0.2,0.4,0.3l0.1,0.1l0,0c0.1,0.1,0.2,0.2,0.4,0.3l0,0l0,0c0,0,0.1,0,0.1,0.1l0,0
	c0.1,0.1,0.3,0.2,0.4,0.3l0,0c0,0,0.1,0,0.1,0.1l0,0l0,0c0.1,0.1,0.2,0.1,0.3,0.2l0,0l0,0c0,0,0.1,0,0.1,0l0,0
	c0.1,0.1,0.3,0.2,0.4,0.2l0,0c0.1,0,0.1,0.1,0.2,0.1l0,0c0.1,0.1,0.2,0.1,0.4,0.2h0c0,0,0,0,0,0l0,0c3.5,1.7,7.4,1.8,11.2,1.9
	L87.6,58.7L87.6,58.7L87.6,58.7z"/>
</svg>
