<?xml version="1.0" encoding="utf-8"?>
<!-- Generator: Adobe Illustrator 27.2.0, SVG Export Plug-In . SVG Version: 6.00 Build 0)  -->
<svg version="1.1" id="Layer_1" xmlns="http://www.w3.org/2000/svg" xmlns:xlink="http://www.w3.org/1999/xlink" x="0px" y="0px"
	 viewBox="0 0 100 100" style="enable-background:new 0 0 100 100;" xml:space="preserve">
<style type="text/css">
	.st0{fill:#FFFFFF;}
</style>
<path class="st0" d="M18.2,54.2c0,8.5,3.3,16.5,9.3,22.5S41.5,86,50,86s16.5-3.3,22.5-9.3s9.3-14,9.3-22.5s-3.3-16.5-9.3-22.5
	c-5.4-5.4-12.3-8.6-19.8-9.2l6.8-6.2c0.5-0.5,0.5-1.3,0.1-1.8s-1.3-0.6-1.8-0.1l-9,8.4c-0.2,0.2-0.4,0.6-0.4,0.9
	c0,0.4,0.1,0.7,0.3,0.9l8.4,9.1c0.3,0.3,0.6,0.4,1,0.4c0.3,0,0.6-0.1,0.9-0.3c0.5-0.5,0.5-1.3,0.1-1.8l-6.2-6.8
	C67.5,26.4,79.2,39,79.2,54.2c0,16.1-13.1,29.2-29.2,29.2S20.8,70.3,20.8,54.2c0-0.7-0.6-1.3-1.3-1.3S18.2,53.5,18.2,54.2z"/>
</svg>
