<?xml version="1.0" encoding="utf-8"?>
<!-- Generator: Adobe Illustrator 26.5.0, SVG Export Plug-In . SVG Version: 6.00 Build 0)  -->
<svg version="1.1" id="Layer_1" xmlns="http://www.w3.org/2000/svg" xmlns:xlink="http://www.w3.org/1999/xlink" x="0px" y="0px"
	 viewBox="0 0 170 70" style="enable-background:new 0 0 170 70;" xml:space="preserve">
<style type="text/css">
	.st0{fill:#1A1919;}
</style>
<g>
	<g>
		<polygon class="st0" points="46,42.9 45.3,42.9 45.3,48.7 48.7,48.7 48.7,48.2 46,48.2 		"/>
		<path class="st0" d="M60.5,42.8c-2,0-3.1,1.5-3.1,3c0,1.7,1.4,3,3.1,3c1.8,0,3.2-1.3,3.2-3C63.7,44.2,62.4,42.8,60.5,42.8z
			 M60.5,48.2c-1.3,0-2.4-1-2.4-2.4c0-1.3,0.9-2.4,2.4-2.4c1.6,0,2.4,1.2,2.4,2.4C63,47.2,61.9,48.2,60.5,48.2z"/>
		<polygon class="st0" points="78.1,47.7 73.9,42.9 73.4,42.9 73.4,48.7 74,48.7 74,43.9 78.2,48.7 78.7,48.7 78.7,42.9 78.1,42.9 
					"/>
		<path class="st0" d="M90.5,42.9h-1.8v5.9h1.8c1.9,0,3.5-0.8,3.5-2.9C94,43.7,92.4,42.9,90.5,42.9z M90.6,48.2h-1.2v-4.7h1.2
			c1.2,0,2.8,0.4,2.8,2.4C93.3,47.8,91.8,48.2,90.6,48.2z"/>
		<path class="st0" d="M106.5,42.8c-2,0-3.1,1.5-3.1,3c0,1.7,1.4,3,3.1,3c1.8,0,3.2-1.3,3.2-3C109.6,44.2,108.4,42.8,106.5,42.8z
			 M106.5,48.2c-1.3,0-2.4-1-2.4-2.4c0-1.3,0.9-2.4,2.4-2.4c1.6,0,2.4,1.2,2.4,2.4C108.9,47.2,107.9,48.2,106.5,48.2z"/>
		<polygon class="st0" points="124,47.7 119.9,42.9 119.3,42.9 119.3,48.7 119.9,48.7 119.9,43.9 124.1,48.7 124.7,48.7 124.7,42.9 
			124,42.9 		"/>
	</g>
	<g>
		<path class="st0" d="M7.3,21.2c-11.1,0.7-9.1,17.7,2.4,16.2C19.4,36.1,17.9,20.5,7.3,21.2z M9.6,37.1C1.3,38.2-1,22.1,7.4,21.5
			C14.9,21.1,16.6,36.1,9.6,37.1z"/>
		<path class="st0" d="M21.4,21.6h-2.3c0.1,4.7,0.1,10.9,0,15.6h10v-0.5l-7.7,0C21.2,32,21.2,26.1,21.4,21.6z"/>
		<path class="st0" d="M32.3,21.6c0.1,4.7,0.1,10.9,0,15.6h2.3c-0.1-4.7-0.1-10.9,0-15.6H32.3z"/>
		<path class="st0" d="M45.1,34.6c-1.5-4-3.2-8.3-4.8-13h-2.5c2,4.9,4.1,10.6,5.9,15.6h1l5.6-15.6h-0.6L45.1,34.6z"/>
		<path class="st0" d="M53.5,21.6c0.1,4.7,0.1,10.9,0,15.6h2.3c-0.1-4.7-0.1-10.9,0-15.6H53.5z"/>
		<path class="st0" d="M64.8,21.6l-5.6,15.6h0.6l1.9-5.3h5.7c0.6,1.7,1.3,3.5,1.9,5.3h2.5c-2-4.9-4.1-10.6-5.9-15.6H64.8z
			 M61.8,31.4l2.6-7.2c0.9,2.3,1.8,4.7,2.7,7.2H61.8z"/>
		<path class="st0" d="M87.8,29c5.1-0.4,5.3-7.4-1.8-7.4h-6c0.1,4.7,0.1,10.9,0,15.6h6.8C95.5,37.2,94.7,29.1,87.8,29z M82.3,22.1
			l2.5,0c6.5,0,5.6,6.7,0.6,6.7h-3.1C82.2,26.4,82.2,24.1,82.3,22.1z M85.5,36.7c-0.8,0-3.3,0-3.3,0c0-2.3-0.1-4.9-0.1-7.5
			c0,0,2.3,0,3.1,0C92.9,29.2,92.9,36.7,85.5,36.7z"/>
		<path class="st0" d="M107.1,31.7c0,3.1-1.3,5.1-4.2,5.1c-2.3,0-4.8-0.9-4.8-4.9l0.1-10.3H96l0,10.6c0,4.7,4.1,5.2,6.9,5.1
			c3.4-0.1,4.7-2.3,4.7-5.6V21.6h-0.5L107.1,31.7z"/>
		<path class="st0" d="M118.8,31.2c5.5-1.5,4.7-9.6-2.4-9.6h-3.7h-2.3c0.1,4.7,0.1,10.9,0,15.6h2.3c0-1.8-0.1-3.7-0.1-5.8
			c1.5,0,3.4,0,4.3,0h0.1c2.5,0.4,2.9,4.1,4,5.2c1.2,1.6,3.7,0.6,3.7,0.6C122.4,36.4,122.3,32.3,118.8,31.2z M117,30.9
			c-0.2,0-0.4,0-0.6,0h-3.7c0-3,0-6.2,0.1-8.8l3.2,0C121.6,22,121.6,30.4,117,30.9z"/>
		<path class="st0" d="M124.2,22h5.8c0.1,4.7,0.1,10.5,0,15.1h2.3c-0.1-4.6-0.1-10.4,0-15.1h5.7v-0.5h-13.8V22z"/>
		<path class="st0" d="M145.4,21.2c-11.1,0.7-9.1,17.7,2.4,16.2C157.4,36.1,156,20.5,145.4,21.2z M147.7,37.1
			c-8.3,1.1-10.6-15-2.3-15.5C153,21.1,154.7,36.1,147.7,37.1z"/>
		<path class="st0" d="M169.5,21.6v12.2c-3-3.8-6.8-8.2-9.7-12.2H158v15.6h0.5V23.8c3.6,4.3,8.3,9.8,10.8,13.3h0.7V21.6H169.5z"/>
	</g>
</g>
</svg>
